<?xml version="1.0" encoding="UTF-8"?>
<!DOCTYPE svg PUBLIC "-//W3C//DTD SVG 1.1//EN" "http://www.w3.org/Graphics/SVG/1.1/DTD/svg11.dtd">
<!-- Creator: CorelDRAW 2017 -->
<svg xmlns="http://www.w3.org/2000/svg" xml:space="preserve" width="79.375mm" height="79.375mm" version="1.1" style="shape-rendering:geometricPrecision; text-rendering:geometricPrecision; image-rendering:optimizeQuality; fill-rule:evenodd; clip-rule:evenodd"
viewBox="0 0 7937.5 7937.5"
 xmlns:xlink="http://www.w3.org/1999/xlink">
 <defs>
  <style type="text/css">
   <![CDATA[
    .fil0 {fill:#005eb8}
   ]]>
  </style>
 </defs>
 <g id="Layer_x0020_1">
  <metadata id="CorelCorpID_0Corel-Layer"/>
  <path class="fil0" d="M7535.17 3809.07l-520.51 0c-29.86,-751.38 -330.11,-1434.28 -806.39,-1953.77l368.59 -368.58 362.66 362.66 181.29 -181.29 -906.49 -906.49 -181.29 181.29 362.66 362.66 -368.43 368.44c-519.45,-480.2 -1204.03,-783.66 -1957.98,-814.8l0 -516.01 512.81 0 0 -256.39 -1282.02 0 0 256.39 512.81 0 0 516.01c-752.02,31.01 -1435.06,332.93 -1954.01,810.86l-364.59 -364.59 362.67 -362.66 -181.29 -181.29 -906.49 906.49 181.29 181.29 362.66 -362.67 364.74 364.74c-477.83,518.9 -779.35,1201.71 -810.36,1953.21l-516.01 0 0 -512.78 -256.39 -0.03 0 1281.99 256.39 0.03 0 -512.78 516.01 -0.03c31.01,752.4 333.21,1435.71 811.51,1954.79l-366.26 366.26 -362.57 -362.67 -181.29 181.26 906.49 906.49 181.29 -181.29 -362.67 -362.66 366.26 -366.26c518.84,477.15 1201.25,778.42 1952.5,809.33l0 516.14 -512.82 0 0 256.39 1282 0 0 -256.39 -512.79 0 0 -516.01c751.5,-31.01 1434.29,-332.56 1953.12,-809.96l366.91 366.92 -362.66 362.66 181.28 181.29 906.49 -906.5 -181.28 -181.28 -362.67 362.66 -366.91 -366.91c477.03,-517.93 778.82,-1199.32 810.86,-1949.52l520.63 0 0 512.79 256.39 0.03 0 -1282 -256.39 -0.03 0 512.57 0.25 0zm-3594.09 2944.11c-1555.19,0 -2820.41,-1265.22 -2820.41,-2820.41 0,-1555.19 1265.22,-2820.41 2820.41,-2820.41 1555.19,0 2820.41,1265.22 2820.41,2820.41 0,1555.19 -1265.22,2820.41 -2820.41,2820.41z"/>
  <path class="fil0" d="M3941.08 3291.76c-353.45,0 -641.01,287.56 -641.01,641.01 0,353.45 287.56,641.01 641.01,641.01 353.46,0 641.01,-287.56 641.01,-641.01 0,-353.45 -287.55,-641.01 -641.01,-641.01zm0 1025.6c-212.05,0 -384.59,-172.57 -384.59,-384.59 0,-212.02 172.57,-384.59 384.59,-384.59 212.02,0 384.59,172.57 384.59,384.59 0,212.02 -172.54,384.59 -384.59,384.59z"/>
  <path class="fil0" d="M3941.08 1368.78c-359.47,0 -641.01,197.17 -641.01,448.69 0,220.76 216.79,399.35 512.78,439.85l0.03 265.26 256.4 0 0 -265.23c296.02,-40.5 512.78,-219.21 512.78,-439.85 0.03,-251.55 -281.51,-448.72 -640.98,-448.72zm0 640.98c-220.11,0 -384.59,-101.52 -384.59,-192.29 0,-90.77 164.48,-192.29 384.59,-192.29 220.11,0 384.59,101.52 384.59,192.29 0,90.77 -164.48,192.29 -384.59,192.29z"/>
  <path class="fil0" d="M4069.28 5608.22l0 -265.26 -256.4 0 0 265.23c-296.02,40.5 -512.78,219.21 -512.78,439.85 0,251.52 281.54,448.69 641.01,448.69 359.47,0 641.01,-197.17 641.01,-448.69 -0.03,-220.73 -216.82,-399.32 -512.84,-439.82zm-128.2 632.14c-220.11,0 -384.59,-101.52 -384.59,-192.29 0,-90.77 164.48,-192.29 384.59,-192.29 220.11,0 384.59,101.52 384.59,192.29 0,90.77 -164.48,192.29 -384.59,192.29z"/>
  <path class="fil0" d="M2265.63 4060.97l265.26 0 0 -256.4 -265.26 0c-40.5,-296.02 -219.21,-512.78 -439.85,-512.78 -251.52,0 -448.69,281.54 -448.69,641.01 0,359.47 197.17,641.01 448.69,641.01 220.76,-0.03 399.35,-216.82 439.85,-512.84zm-439.85 256.39c-90.77,0 -192.29,-164.48 -192.29,-384.59 0,-220.11 101.52,-384.59 192.29,-384.59 90.77,0 192.3,164.48 192.3,384.59 0,220.11 -101.53,384.59 -192.3,384.59z"/>
  <path class="fil0" d="M5616.53 3804.57l-265.26 0 0 256.4 265.26 0c40.5,296.02 219.21,512.78 439.85,512.78 251.52,0 448.69,-281.54 448.69,-641.01 0,-359.47 -197.17,-641.01 -448.69,-641.01 -220.76,0.03 -399.35,216.82 -439.85,512.84zm439.85 -256.39c90.77,0 192.3,164.48 192.3,384.59 0,220.11 -101.53,384.59 -192.3,384.59 -90.77,0 -192.29,-164.48 -192.29,-384.59 0,-220.11 101.52,-384.59 192.29,-384.59z"/>
  <path class="fil0" d="M2986.9 2369.76c35.5,-153.72 3.31,-294.35 -88.2,-385.89 0,0 0,0 0,0 0,0 0,0 0,0 -91.54,-91.54 -232.17,-123.7 -385.89,-88.19 -134.37,31.01 -271.03,110.64 -384.59,224.36 -113.56,113.71 -193.31,250.25 -224.36,384.59 -35.5,153.71 -3.19,294.34 88.2,385.89 67.17,67.17 160.75,102.42 266.65,102.42 38.33,0 78.46,-4.62 119.36,-14.11 97.93,-22.57 196.92,-71.66 287.44,-140.26l187.79 187.8 181.29 -181.28 -187.8 -187.8c68.57,-90.74 117.53,-189.6 140.11,-287.53zm-666.51 358.95c-65.77,15.13 -119.23,8.06 -146.92,-19.88 -27.69,-27.69 -34.86,-81.28 -19.76,-146.93 20.01,-86.92 76.79,-182.03 155.77,-261.01 78.98,-78.98 174.09,-135.76 261.01,-155.77 22.58,-5.24 43.73,-7.81 62.83,-7.81 36.65,0 65.89,9.36 84.1,27.57 0,0 0,0 0,0 27.69,27.69 34.85,81.28 19.75,146.92 -20,86.93 -76.78,182.03 -155.76,261.02 -78.99,78.98 -174.13,135.88 -261.02,155.89z"/>
  <path class="fil0" d="M5504.09 4886.95c-97.93,22.58 -196.92,71.55 -287.43,140.26l-187.8 -187.79 -181.29 181.28 187.8 187.8c-68.6,90.52 -117.68,189.47 -140.26,287.43 -35.51,153.72 -3.32,294.35 88.19,385.89 0,0 0,0 0,0 0,0 0,0 0,0 67.17,67.17 160.76,102.31 266.54,102.31 38.32,0 78.45,-4.62 119.35,-14.11 134.37,-31.01 271.03,-110.65 384.59,-224.36 113.56,-113.72 193.32,-250.25 224.36,-384.59 35.51,-153.72 3.2,-294.35 -88.19,-385.89 -91.39,-91.54 -232.02,-123.73 -385.86,-88.23zm224.48 416.53c-20,86.93 -76.78,182.03 -155.76,261.02 -78.99,78.98 -174.09,135.76 -261.02,155.76 -65.89,15.26 -119.35,7.94 -146.92,-19.75 0,0 0,0 0,0 -27.69,-27.69 -34.86,-81.28 -19.76,-146.93 20.01,-86.92 76.79,-182.03 155.77,-261.01 78.98,-78.98 174.09,-135.76 261.01,-155.77 22.58,-5.24 43.73,-7.81 62.83,-7.81 36.65,0 65.9,9.36 84.1,27.57 27.69,27.69 34.88,81.28 19.75,146.92z"/>
  <path class="fil0" d="M2853.3 4839.26l-187.79 187.8c-90.52,-68.6 -189.48,-117.56 -287.44,-140.26 -153.71,-35.38 -294.35,-3.32 -385.89,88.19 0,0 0,0 0,0 0,0 0,0 0,0 -91.54,91.54 -123.7,232.3 -88.19,385.89 31.01,134.37 110.64,271.03 224.36,384.59 113.71,113.56 250.25,193.32 384.59,224.36 40.9,9.49 80.9,14.11 119.35,14.11 105.78,0 199.37,-35.13 266.54,-102.3 91.54,-91.54 123.85,-232.3 88.31,-386.02 -22.57,-97.93 -71.54,-196.91 -140.25,-287.43l187.79 -187.8 -181.38 -181.13zm-136.01 861.25c-27.56,27.69 -81.03,34.85 -146.92,19.75 -86.92,-20 -182.03,-76.78 -261.02,-155.76 -78.98,-78.99 -135.76,-174.09 -155.76,-261.02 -15.13,-65.64 -7.94,-119.23 19.75,-146.92 0,0 0,0 0,0 18.21,-18.21 47.45,-27.57 84.1,-27.57 19.11,0 40.25,2.57 62.83,7.81 86.92,20.01 182.03,76.79 261.01,155.77 78.99,78.98 135.77,174.09 155.77,261.01 15.22,65.53 7.94,119.11 -19.76,146.93z"/>
  <path class="fil0" d="M5369.47 1895.43c-153.59,-35.51 -294.22,-3.32 -385.89,88.19 -91.54,91.55 -123.85,232.3 -88.31,386.02 22.57,97.93 71.66,196.91 140.25,287.43l-187.79 187.8 181.28 181.29 187.8 -187.8c90.52,68.59 189.47,117.68 287.43,140.26 40.91,9.49 80.91,14.11 119.36,14.11 105.78,0 199.37,-35.14 266.54,-102.31 0,0 0,0 0,0 0,0 0,0 0,0 91.54,-91.54 123.69,-232.29 88.19,-385.89 -31.01,-134.36 -110.65,-271.03 -224.36,-384.59 -113.72,-113.56 -250.13,-193.5 -384.5,-224.51zm339.35 813.55c0,0 0,0 0,0 -27.69,27.82 -81.16,34.86 -146.93,19.88 -86.92,-20 -182.03,-76.78 -261.01,-155.76 -78.98,-78.99 -135.76,-174.1 -155.77,-261.02 -15.13,-65.65 -7.93,-119.23 19.88,-146.92 18.21,-18.21 47.45,-27.57 84.1,-27.57 19.1,0 40.25,2.57 62.83,7.81 86.92,20 182.03,76.78 261.01,155.77 78.98,78.98 135.76,174.09 155.77,261.01 15,65.53 7.81,119.11 -19.88,146.8z"/>
 </g>
</svg>
